Coordinates
version=1
nRows=29
nColumns=22
inDegrees=yes

Units are S.I. units (second, meters, Newtons, ...)
If the header above contains a line with 'inDegrees', this indicates whether rotational values are in degrees (yes) or radians (no).

endheader
time	pelvis_tilt	pelvis_list	pelvis_rotation	pelvis_tx	pelvis_ty	pelvis_tz	hip_flexion_r	hip_adduction_r	hip_rotation_r	knee_angle_r	ankle_angle_r	subtalar_angle_r	hip_flexion_l	hip_adduction_l	hip_rotation_l	knee_angle_l	ankle_angle_l	subtalar_angle_l	lumbar_extension	lumbar_bending	lumbar_rotation
      3.09000000	     -1.17112043	      1.04788916	     -0.66799030	     -1.13952126	      0.98431714	     -0.08182958	     27.76232817	     -1.34389378	     -7.60592556	     -6.94125154	      5.49204248	     12.14967853	     -8.81858286	      3.05133937	     -4.76783981	    -10.19267300	     19.63174329	     -2.48228067	     -6.53565571	     -4.91777796	     -3.63068173
      3.10000000	     -1.16756584	      0.96848313	     -0.71910141	     -1.12969739	      0.98225863	     -0.08110859	     27.80972819	     -1.16557685	     -6.89365341	     -6.64236178	      5.58991282	     12.39404489	     -9.19871462	      2.93404794	     -4.88321232	    -10.69226061	     20.05877635	     -2.31166285	     -6.51903603	     -4.72913019	     -3.60360483
      3.11000000	     -1.17222239	      0.91402556	     -0.73331440	     -1.11973240	      0.98024902	     -0.08044271	     27.92956743	     -1.06247357	     -6.29138195	     -6.73209417	      5.61187269	     12.47309622	     -9.58754795	      2.84246844	     -4.91917859	    -11.17555323	     20.45389653	     -2.19438698	     -6.50417937	     -4.55660197	     -3.63097238
      3.12000000	     -1.18230253	      0.85553419	     -0.71853118	     -1.10956565	      0.97835780	     -0.07978807	     28.08288717	     -0.99274750	     -5.79351650	     -7.13785828	      5.57328503	     12.44215098	     -9.98363492	      2.73743912	     -4.94066597	    -11.65443165	     20.71593347	     -1.97921348	     -6.48218920	     -4.36654538	     -3.70043500
      3.13000000	     -1.20250701	      0.79828144	     -0.64721697	     -1.09922824	      0.97662268	     -0.07917430	     28.27572913	     -0.96853100	     -5.45710876	     -7.83965658	      5.42953592	     12.20472987	    -10.37050347	      2.62010237	     -4.87162488	    -12.14738630	     20.86337249	     -1.64776032	     -6.45565102	     -4.16947483	     -3.82027337
      3.14000000	     -1.21973697	      0.73913849	     -0.53374581	     -1.08869456	      0.97511218	     -0.07858973	     28.49312623	     -0.98078597	     -5.33304445	     -8.80410520	      5.12239110	     11.83087104	    -10.78470751	      2.49132611	     -4.71955535	    -12.60682724	     20.87977395	     -1.34681364	     -6.43355313	     -3.95761604	     -4.00255937
      3.15000000	     -1.24334765	      0.66045653	     -0.39353641	     -1.07795208	      0.97385615	     -0.07797308	     28.72810218	     -0.99965042	     -5.40902848	     -9.96530260	      4.63819060	     11.28290373	    -11.20593046	      2.32737142	     -4.52518687	    -13.05230917	     20.77711117	     -0.98902260	     -6.39944293	     -3.71714750	     -4.22167098
      3.16000000	     -1.27379499	      0.54799794	     -0.21468187	     -1.06701142	      0.97290866	     -0.07734055	     28.96901913	     -1.02059631	     -5.73600994	    -11.26465695	      3.98266318	     10.63484469	    -11.61841041	      2.11049582	     -4.25423774	    -13.50813590	     20.51693713	     -0.60012946	     -6.35297734	     -3.43245636	     -4.47598454
      3.17000000	     -1.31703338	      0.38691091	     -0.01540139	     -1.05587220	      0.97230214	     -0.07663886	     29.20101178	     -1.01882033	     -6.27128420	    -12.62377178	      3.15304957	      9.85399710	    -12.00602557	      1.82457351	     -3.92649405	    -13.98933462	     20.08444930	     -0.14701252	     -6.28199501	     -3.09203595	     -4.73461723
      3.18000000	     -1.37595021	      0.16857872	      0.19423775	     -1.04452661	      0.97204910	     -0.07584109	     29.41989381	     -0.98252875	     -6.98697830	    -14.00487346	      2.21506170	      9.03734860	    -12.36506253	      1.46442568	     -3.54247379	    -14.49174753	     19.52032592	      0.34411231	     -6.17782538	     -2.69099254	     -4.99850368
      3.19000000	     -1.45116977	     -0.11269239	      0.39367506	     -1.03297915	      0.97215430	     -0.07492050	     29.60754541	     -0.89265902	     -7.80068208	    -15.35364980	      1.25414970	      8.21023659	    -12.67391204	      1.02822120	     -3.14165061	    -15.05264594	     18.80385825	      0.88456509	     -6.03361627	     -2.22377989	     -5.24255844
      3.20000000	     -1.54289208	     -0.45438196	      0.56335698	     -1.02123595	      0.97260258	     -0.07382840	     29.75212059	     -0.73330909	     -8.62905567	    -16.64179626	      0.35584134	      7.43333838	    -12.92077809	      0.52334977	     -2.76273905	    -15.68728107	     17.93829449	      1.47007565	     -5.84547841	     -1.70079060	     -5.44765278
      3.21000000	     -1.65463254	     -0.85337963	      0.70177359	     -1.00930625	      0.97335769	     -0.07258469	     29.85023286	     -0.50265838	     -9.43187557	    -17.85444543	     -0.41638522	      6.82601730	    -13.08961523	     -0.04190213	     -2.42069517	    -16.41415623	     16.95197287	      2.05784354	     -5.60490405	     -1.12255016	     -5.62908968
      3.22000000	     -1.76342502	     -1.27817054	      0.76029627	     -0.99722632	      0.97441800	     -0.07107641	     29.85678563	     -0.17961622	    -10.05891992	    -18.93803004	     -1.00509863	      6.20412187	    -13.18059857	     -0.63073550	     -2.22189762	    -17.27637358	     15.76004813	      2.76524948	     -5.34182865	     -0.53899826	     -5.72310279
      3.23000000	     -1.88748730	     -1.72852957	      0.77940654	     -0.98502443	      0.97570907	     -0.06944029	     29.80220096	      0.20502601	    -10.59169704	    -19.91129700	     -1.44279577	      5.81558837	    -13.17320661	     -1.24180591	     -2.12491111	    -18.26220220	     14.45459999	      3.42389022	     -5.03482393	      0.06726374	     -5.79676509
      3.24000000	     -2.00522880	     -2.17214121	      0.73645760	     -0.97274972	      0.97722278	     -0.06761512	     29.64712043	      0.65670384	    -10.91962462	    -20.72962802	     -1.69293727	      5.45201577	    -13.07331626	     -1.84353354	     -2.18424025	    -19.39773814	     12.97627625	      4.14701520	     -4.71545326	      0.65140887	     -5.82444036
      3.25000000	     -2.11219830	     -2.58660281	      0.64669400	     -0.96042525	      0.97891283	     -0.06566352	     29.40470881	      1.13995676	    -11.09556474	    -21.42369504	     -1.76387787	      5.10375886	    -12.88835622	     -2.41489710	     -2.39151170	    -20.66704212	     11.33841378	      4.88559219	     -4.39135262	      1.19364337	     -5.81161851
      3.26000000	     -2.21229453	     -2.96938239	      0.54104151	     -0.94812957	      0.98072908	     -0.06363426	     29.07752280	      1.64205842	    -11.12663633	    -21.98007977	     -1.71159472	      4.76544486	    -12.58183608	     -2.96963245	     -2.75493939	    -22.11436483	      9.56271598	      5.55186004	     -4.06850172	      1.69442893	     -5.80522899
      3.27000000	     -2.30766507	     -3.31516909	      0.42383918	     -0.93588893	      0.98262252	     -0.06153279	     28.67833027	      2.15541267	    -11.01440435	    -22.41424040	     -1.55820840	      4.43853944	    -12.15221725	     -3.50992161	     -3.26838861	    -23.73107994	      7.66628711	      6.09153957	     -3.74749949	      2.14615450	     -5.80255828
      3.28000000	     -2.38559288	     -3.61430649	      0.31914643	     -0.92372861	      0.98455384	     -0.05941173	     28.21460347	      2.64489670	    -10.84453182	    -22.76708094	     -1.27683933	      4.03411843	    -11.60863476	     -4.03976017	     -3.90721152	    -25.51790921	      5.70438942	      6.60937168	     -3.44923471	      2.53902546	     -5.80571477
      3.29000000	     -2.45406218	     -3.87999650	      0.24128045	     -0.91169049	      0.98646407	     -0.05726790	     27.70556063	      3.11222557	    -10.65062019	    -23.05319330	     -0.91047761	      3.54635335	    -10.93661408	     -4.58761378	     -4.65339705	    -27.47872303	      3.77011053	      7.09888863	     -3.16968120	      2.88129902	     -5.82560530
      3.30000000	     -2.51258750	     -4.12496620	      0.19363980	     -0.89980938	      0.98834383	     -0.05512035	     27.14378165	      3.56782582	    -10.41677719	    -23.25018343	     -0.49148382	      3.14353094	    -10.14636249	     -5.16973027	     -5.46573839	    -29.59203468	      1.91960113	      7.47475587	     -2.91615744	      3.19122207	     -5.86054238
      3.31000000	     -2.56515885	     -4.36148938	      0.18622490	     -0.88812316	      0.99013430	     -0.05296990	     26.55704354	      4.00751988	    -10.22058137	    -23.39813122	     -0.03302098	      2.68817100	     -9.23146884	     -5.81053506	     -6.32101917	    -31.85893709	      0.30808001	      7.83598552	     -2.69049287	      3.47635692	     -5.91930927
      3.32000000	     -2.59883956	     -4.59627683	      0.21898453	     -0.87666106	      0.99184719	     -0.05083190	     25.93480983	      4.43865462	    -10.05118743	    -23.49442485	      0.44344712	      2.24954565	     -8.22391782	     -6.50511565	     -7.14511268	    -34.23785508	     -0.98621172	      8.13538466	     -2.51354523	      3.74487495	     -5.99157063
      3.33000000	     -2.61379528	     -4.83857135	      0.28465786	     -0.86544078	      0.99347825	     -0.04871125	     25.27867597	      4.87120574	     -9.91247948	    -23.53652351	      0.91878949	      1.83973450	     -7.13240357	     -7.25112280	     -7.89955977	    -36.70127895	     -1.89347243	      8.33142358	     -2.38896715	      4.00769998	     -6.06805036
      3.34000000	     -2.60289113	     -5.08207312	      0.37952634	     -0.85446301	      0.99504068	     -0.04664530	     24.58449067	      5.29626349	     -9.80414285	    -23.52960409	      1.39265605	      1.47009843	     -5.97695012	     -8.02216991	     -8.54523970	    -39.20657083	     -2.39839582	      8.37008680	     -2.32522659	      4.26278826	     -6.13401985
      3.35000000	     -2.57025057	     -5.31361964	      0.49706842	     -0.84373379	      0.99653477	     -0.04464071	     23.86130878	      5.70024395	     -9.72727626	    -23.47978400	      1.84780146	      1.12179493	     -4.76210340	     -8.78509532	     -9.05951069	    -41.71246499	     -2.52241285	      8.19376592	     -2.31609244	      4.49555580	     -6.19631166
      3.36000000	     -2.51118781	     -5.52906003	      0.62334246	     -0.83323904	      0.99798374	     -0.04271330	     23.10705287	      6.08069267	     -9.67214857	    -23.39760846	      2.29865486	      0.83580909	     -3.50803600	     -9.51110401	     -9.43249087	    -44.16988309	     -2.32963191	      7.78839738	     -2.36340887	      4.70374628	     -6.22815959
      3.37000000	     -2.43920566	     -5.70853212	      0.75367383	     -0.82298142	      0.99938558	     -0.04088281	     22.33820929	      6.41737661	     -9.62115993	    -23.28807972	      2.74539967	      0.57665735	     -2.20853747	    -10.15762139	     -9.65349558	    -46.53999466	     -1.92659865	      7.10364757	     -2.44648212	      4.86745035	     -6.21411386
